<?xml version="1.0" encoding="iso-8859-1"?>
<!-- Uploaded to: SVG Repo, www.svgrepo.com, Generator: SVG Repo Mixer Tools -->
<svg fill="#fff" height="800px" width="800px" version="1.1" id="Layer_1" xmlns="http://www.w3.org/2000/svg" xmlns:xlink="http://www.w3.org/1999/xlink" 
	 viewBox="0 0 511.997 511.997" xml:space="preserve">
<g>
	<g>
		<circle cx="233.707" cy="416.734" r="13.469"/>
	</g>
</g>
<g>
	<g>
		<circle cx="278.288" cy="416.734" r="13.469"/>
	</g>
</g>
<g>
	<g>
		<g>
			<path d="M183.85,470.382c-0.033-0.057-0.068-0.112-0.101-0.169C183.797,470.296,183.828,470.347,183.85,470.382z"/>
			<path d="M483.98,180.164c0-9.426-7.642-17.068-17.068-17.068H359.28c-8.544-13.055-19.381-24.181-31.937-32.963V87.251
				c16.541-6.754,28.232-23.009,28.232-41.95C355.576,20.321,335.255,0,310.276,0c-24.979,0-45.3,20.321-45.3,45.301
				c0,18.941,11.69,35.195,28.232,41.95v26.145c-23.962-7.496-50.214-7.512-74.418-0.05V87.251
				c16.541-6.754,28.232-23.009,28.232-41.95C247.022,20.321,226.7,0,201.722,0c-24.977,0-45.3,20.321-45.3,45.301
				c0,18.941,11.69,35.195,28.232,41.95v42.881c-12.336,8.716-23.134,19.808-31.798,32.964H45.085
				c-9.426,0-17.068,7.642-17.068,17.068c0,46.821,42.405,82.909,89.021,74.582l-15.358,44.469
				c-1.522,4.411-1.173,9.254,0.968,13.401c0.586,1.134,83.063,160.669,81.201,157.767c34.165,59.551,122.9,54.313,149.245-10.087
				c1.637-3.171,74.623-144.52,76.254-147.68c2.141-4.148,2.491-8.99,0.967-13.402l-15.358-44.468
				C441.667,263.087,483.98,226.894,483.98,180.164z M310.276,34.136c6.156,0,11.164,5.008,11.164,11.165
				c0,6.155-5.008,11.164-11.164,11.164s-11.164-5.008-11.164-11.164C299.113,39.144,304.12,34.136,310.276,34.136z
				 M314.602,163.698c-4.125,13.181-10.054,27.308-17.692,42.125c-25.049,48.598-25.172,88.27-24.793,133.793
				c-10.352-1.345-21.419-1.422-32.243,0.019c0.365-45.59,0.203-85.339-24.779-133.789c-7.641-14.82-13.575-28.952-17.702-42.144
				C230.903,134.591,281.357,134.82,314.602,163.698z M201.722,34.136c6.156,0,11.164,5.008,11.164,11.165
				c0,6.155-5.008,11.164-11.164,11.164s-11.164-5.008-11.164-11.164C190.559,39.144,195.566,34.136,201.722,34.136z
				 M65.813,197.232h71.085l-4.575,13.244C111.514,230.066,77.592,223.352,65.813,197.232z M171.612,371.771l-35.279-68.323
				c2.185-6.328,4.229-12.247,6.154-17.821c4.009,3.638,9.312,5.873,15.151,5.873c12.47,0,22.579-10.109,22.579-22.579
				c0-12.47-10.109-22.579-22.579-22.579c-0.546,0-1.082,0.043-1.618,0.082c17.541-50.826,15.956-46.242,17.285-49.425
				c19.172,45.839,33.213,48.014,32.413,145.063c-0.019,2.362-0.039,4.765-0.055,7.19
				C193.124,354.796,181.643,362.386,171.612,371.771z M255.999,477.906c-34.842,0-42.284-24.595-67.856-74.119
				c35.134-40.87,99.495-41.925,135.705,0.013C299.063,451.801,291.49,477.906,255.999,477.906z M340.365,371.813
				c-3.937-3.665-8.119-7.078-12.533-10.223c-6.827-4.863-14.025-8.978-21.499-12.322c-0.018-2.507-0.038-4.988-0.058-7.427
				c-0.823-96.7,13.264-99.055,32.418-144.848c1.519,3.64,0.139-0.302,17.279,49.393c-0.308-0.013-0.612-0.047-0.924-0.047
				c-12.47,0-22.579,10.109-22.579,22.579c0,12.47,10.109,22.579,22.579,22.579c5.585,0,10.686-2.038,14.627-5.397
				c1.876,5.434,3.865,11.196,5.99,17.347L340.365,371.813z M379.676,210.475l-4.575-13.244h71.085
				C434.391,223.388,400.45,230.034,379.676,210.475z"/>
		</g>
	</g>
</g>
</svg>