<?xml version="1.0" encoding="iso-8859-1"?>
<!-- Uploaded to: SVG Repo, www.svgrepo.com, Generator: SVG Repo Mixer Tools -->
<svg fill="#fff" height="800px" width="800px" version="1.1" id="Layer_1" xmlns="http://www.w3.org/2000/svg" xmlns:xlink="http://www.w3.org/1999/xlink" 
	 viewBox="0 0 512 512" xml:space="preserve">
<g>
	<g>
		<path d="M481.581,4.883c-6.503-6.506-17.069-6.511-23.578,0l-51.75,51.749C378.723,22.551,336.613,0.71,289.492,0.71h-66.69
			c-42.715,0-83.534,18.29-111.99,50.181V50.89c-1.697,1.902-3.336,3.846-4.927,5.822L54.054,4.883c-6.51-6.51-17.067-6.51-23.578,0
			c-32.576,32.576-32.584,85.309,0,117.891c11.8,11.801,26.215,19.6,42.151,22.787c-0.145,4.183-0.099-10.64-0.099,192.242
			c0,19.463,7.085,38.417,19.545,53.368l47.368,56.842v13.97c0,27.58,22.438,50.017,50.018,50.017h133.38
			c27.58,0,50.018-22.438,50.018-50.017v-13.975l47.369-56.838c12.46-14.952,18.988-33.905,18.988-53.368
			c0-202.906,0.046-188.027-0.102-192.294c15.844-3.218,30.732-10.994,42.473-22.735C514.084,90.272,514.084,37.386,481.581,4.883z
			 M77.708,112.486c-8.873-2.115-17.014-6.65-23.654-13.289c-15.7-15.7-18.491-38.76-9.787-56.942l43.355,43.353
			C83.467,94.226,80.148,103.226,77.708,112.486z M394.608,369.823l-51.233,61.475c-2.498,2.997-3.866,6.775-3.866,10.675v20.011
			c0,9.193-7.479,16.672-16.672,16.672h-133.38c-9.193,0-16.673-7.479-16.673-16.672v-20.007c0-3.9-1.367-7.677-3.865-10.674
			l-51.232-61.479c-7.477-8.971-11.928-20.344-11.928-32.021V150.762c0-28.697,10.845-56.282,29.932-77.67v-0.001
			c22.137-24.808,53.885-39.036,87.109-39.036h66.69c64.352,0,116.485,52.355,116.485,116.707v187.041h0.002
			C405.977,349.481,402.083,360.852,394.608,369.823z M458.003,99.197c-6.582,6.582-14.648,11.079-23.434,13.219
			c-2.479-9.371-5.839-18.386-9.995-26.948l43.197-43.195C476.63,60.86,473.373,83.826,458.003,99.197z"/>
	</g>
</g>
<g>
	<g>
		<circle cx="222.8" cy="428.638" r="16.672"/>
	</g>
</g>
<g>
	<g>
		<circle cx="289.49" cy="428.638" r="16.672"/>
	</g>
</g>
<g>
	<g>
		<circle cx="156.11" cy="217.453" r="16.672"/>
	</g>
</g>
<g>
	<g>
		<circle cx="356.18" cy="217.453" r="16.672"/>
	</g>
</g>
<g>
	<g>
		<path d="M341.357,342.672c-28.831-9.43-33.196-35.071-36.434-39.953c-1.587-25.733-4.615-66.012-8.613-104.988
			c-3.491-34.037-7.121-61.318-10.792-81.084C280.516,89.703,274.853,67.4,256.146,67.4c-18.705,0-24.37,22.302-29.371,49.247
			c-3.671,19.767-7.301,47.046-10.793,81.083c-4.184,40.79-7.306,83.005-8.824,108.482c-0.054,0.15-0.122,0.292-0.173,0.446
			c-6.139,18.419-17.745,30.536-34.494,36.014c-8.752,2.862-13.527,12.277-10.665,21.028c2.869,8.774,12.302,13.521,21.028,10.665
			c12.114-3.961,22.672-10.141,31.498-18.333c8.951,13.593,24.339,22.588,41.795,22.588c17.842,0,33.523-9.398,42.377-23.496
			c9.018,8.646,19.909,15.133,32.468,19.241c8.739,2.86,18.163-1.903,21.029-10.665
			C354.884,354.948,350.109,345.535,341.357,342.672z M256.147,345.275c-9.193,0-16.672-7.479-16.672-16.672
			c0-6.959,3.003-58.936,8.467-115.31c2.939-30.318,5.724-52.907,8.205-69.702c2.481,16.795,5.266,39.384,8.206,69.703
			c5.464,56.372,8.466,108.349,8.466,115.309C272.82,337.797,265.34,345.275,256.147,345.275z"/>
	</g>
</g>
</svg>