<?xml version="1.0" encoding="iso-8859-1"?>
<!-- Uploaded to: SVG Repo, www.svgrepo.com, Generator: SVG Repo Mixer Tools -->
<svg fill="#fff" height="800px" width="800px" version="1.1" id="Layer_1" xmlns="http://www.w3.org/2000/svg" xmlns:xlink="http://www.w3.org/1999/xlink" 
	 viewBox="0 0 511.999 511.999" xml:space="preserve">
<g>
	<g>
		<path d="M406.449,15.45c-3.913-9.168-10.302-12.859-14.977-14.344c-13.288-4.213-30.001,3.66-48.338,22.767
			c-15.862,16.528-31.659,40.011-44.487,66.129c-0.433,0.884-0.841,1.76-1.264,2.641c-5.922-1.831-12.044-3.25-18.347-4.247
			l13.665-13.66c4.147-4.145,4.148-10.867,0.002-15.014c-4.145-4.148-10.866-4.149-15.014-0.003l-11.073,11.069V55.137
			c0-5.863-4.753-10.617-10.617-10.617s-10.617,4.754-10.617,10.617v15.654l-11.073-11.069c-4.148-4.147-10.87-4.146-15.014,0.003
			c-4.146,4.146-4.144,10.868,0.002,15.014l13.664,13.659c-6.303,0.996-12.426,2.415-18.346,4.247
			c-0.424-0.884-0.832-1.762-1.268-2.65c-12.824-26.111-28.621-49.592-44.482-66.12C150.528,4.766,133.808-3.107,120.522,1.108
			c-4.67,1.483-11.058,5.176-14.972,14.343c-8.8,20.61-0.733,60.99,21.055,105.38c5.39,10.978,11.303,21.48,17.608,31.315
			c-21.952,43.465-20.056,101.325,5.582,163.878c11.931,29.121,24.174,54.401,36.429,75.228c-2.636,7.748-3.992,15.841-3.992,24.144
			c0,9.214,1.69,17.643,5.008,25.117c-0.037,1.135-0.06,2.289-0.06,3.463c0,42.594,25.727,68.022,68.818,68.022
			c43.092,0,68.818-25.428,68.818-68.022c0-1.173-0.022-2.327-0.06-3.463c3.318-7.473,5.008-15.903,5.008-25.117
			c0-8.302-1.355-16.397-3.99-24.15c12.259-20.845,24.5-46.117,36.427-75.221c9.153-22.33,15.353-44.264,18.431-65.19
			c0.854-5.802-3.159-11.195-8.96-12.049c-5.799-0.854-11.194,3.157-12.048,8.958c-1.611,10.951-4.17,22.241-7.644,33.764H306.28
			c-5.864,0-10.617,4.754-10.617,10.617s4.753,10.617,10.617,10.617h38.357c-0.677,1.741-1.366,3.483-2.083,5.232
			c-1.258,3.07-2.519,6.082-3.783,9.061c-0.475-0.065-0.954-0.11-1.447-0.11h-26.595c-5.864,0-10.617,4.754-10.617,10.617
			s4.753,10.617,10.617,10.617h18.685c-5.165,11.146-10.357,21.506-15.549,31.027c-11.316-14.471-27.653-24.415-45.877-27.712
			v-61.314c0-5.863-4.753-10.617-10.617-10.617c-5.864,0-10.617,4.754-10.617,10.617v60.869
			c-19.315,2.756-36.737,12.963-48.617,28.159c-5.193-9.518-10.385-19.878-15.553-31.029h18.687c5.864,0,10.617-4.754,10.617-10.617
			s-4.753-10.617-10.617-10.617h-26.595c-0.493,0-0.974,0.045-1.448,0.11c-1.263-2.979-2.525-5.991-3.783-9.061
			c-0.717-1.749-1.41-3.493-2.087-5.232h38.362c5.864,0,10.617-4.754,10.617-10.617c0-5.863-4.753-10.617-10.617-10.617h-45.705
			c-14.689-48.626-12.829-92.191,5.748-124.655c6.451-11.303,14.819-20.901,24.888-28.538c3.557-2.706,7.336-5.158,11.299-7.353
			v19.608c0,5.863,4.753,10.617,10.617,10.617c5.864,0,10.617-4.754,10.617-10.617v-28.326c7.058-2.008,14.477-3.326,22.2-3.954
			v57.09c0,5.863,4.753,10.617,10.617,10.617s10.617-4.754,10.617-10.617v-57.088c7.722,0.627,15.141,1.946,22.2,3.955v28.326
			c0,5.863,4.753,10.617,10.617,10.617c5.864,0,10.617-4.754,10.617-10.617v-19.608c3.964,2.197,7.748,4.651,11.313,7.365
			c10.054,7.626,18.423,17.224,24.88,28.537c6.149,10.745,10.526,22.959,13.009,36.301c1.072,5.765,6.616,9.571,12.38,8.495
			c5.765-1.073,9.568-6.615,8.495-12.38c-2.486-13.362-6.643-25.817-12.343-37.133c6.321-9.862,12.234-20.365,17.61-31.316
			C407.181,76.442,415.249,36.062,406.449,15.45z M256,490.767c-22.686,0-37.336-8.126-43.787-24.217
			c11.182,5.903,25.152,9.224,41.363,9.672c0.347,0.034,0.699,0.052,1.054,0.052c0.346,0,0.685-0.001,1.028-0.007
			c0.121,0.003,0.236,0.001,0.34,0c0.096,0.002,0.22-0.002,0.331-0.003c0.346,0.006,0.69,0.011,1.04,0.011
			c0.383,0,0.761-0.022,1.134-0.063c16.174-0.458,30.121-3.767,41.282-9.659C293.334,482.641,278.684,490.767,256,490.767z
			 M207.793,394.209c8.283-19.364,27.188-32.176,48.205-32.689c21.081,0.521,40.013,13.387,48.271,32.822
			c2.828,6.66,4.263,13.745,4.263,21.055c0,6.935-1.327,13.032-3.942,18.12c-9.405,18.291-34.381,21.329-48.432,21.514
			c-0.06-0.006-0.116-0.002-0.158-0.001c-0.05,0-0.064,0.005-0.153,0.001c-0.003,0.001-0.003,0-0.005,0
			c-14.05-0.185-39.026-3.223-48.431-21.512c-2.616-5.09-3.943-11.187-3.943-18.122
			C203.468,408.039,204.922,400.912,207.793,394.209z M188.011,104.497c-12.082-21.2-27.989-42.573-28.771-43.618
			c-3.508-4.698-10.158-5.662-14.858-2.154c-4.698,3.509-5.663,10.16-2.155,14.859c0.19,0.254,17.05,22.912,28.579,43.637
			c-5.081,4.54-9.76,9.512-13.979,14.924c-3.923-6.63-7.659-13.536-11.16-20.669c-20.373-41.507-25.779-75.531-20.589-87.687
			c0.417-0.976,1.08-2.19,1.865-2.441c2.151-0.684,11.112,1.088,26.602,17.229c14.389,14.993,28.859,36.578,40.74,60.771
			c0.214,0.438,0.414,0.871,0.626,1.308C192.561,101.862,190.259,103.142,188.011,104.497z M366.333,111.474
			c-3.495,7.121-7.232,14.026-11.163,20.668c-4.22-5.414-8.898-10.385-13.977-14.922c11.53-20.725,28.389-43.383,28.579-43.637
			c3.508-4.699,2.543-11.35-2.155-14.859c-4.696-3.508-11.349-2.543-14.858,2.154c-0.781,1.046-16.69,22.418-28.772,43.619
			c-2.249-1.355-4.55-2.636-6.899-3.842c0.21-0.434,0.409-0.865,0.622-1.301c11.885-24.201,26.355-45.786,40.743-60.779
			c15.49-16.141,24.451-17.917,26.596-17.23c0.792,0.251,1.454,1.466,1.871,2.442C392.11,35.944,386.705,69.968,366.333,111.474z"/>
	</g>
</g>
<g>
	<g>
		<path d="M382.901,218.178c-0.071-5.819-4.811-10.484-10.613-10.484c-0.045,0-0.09,0-0.136,0.001
			c-5.863,0.073-10.556,4.886-10.483,10.748l0.011,1.163c0.03,5.846,4.776,10.564,10.616,10.564h0.054
			c5.864-0.029,10.593-4.806,10.564-10.67L382.901,218.178z"/>
	</g>
</g>
<g>
	<g>
		<path d="M313.564,205.885c-18.95,0-34.367,15.417-34.367,34.367c0,5.863,4.753,10.617,10.617,10.617
			c5.864,0,10.617-4.754,10.617-10.617c0-7.242,5.891-13.133,13.133-13.133c7.247,0,13.144,5.891,13.144,13.133
			c0,5.863,4.753,10.617,10.617,10.617c5.864,0,10.617-4.754,10.617-10.617C347.941,221.303,332.519,205.885,313.564,205.885z"/>
	</g>
</g>
<g>
	<g>
		<path d="M198.435,205.885c-18.955,0-34.377,15.417-34.377,34.367c0,5.863,4.753,10.617,10.617,10.617s10.617-4.754,10.617-10.617
			c0-7.242,5.897-13.133,13.144-13.133c7.242,0,13.133,5.891,13.133,13.133c0,5.863,4.753,10.617,10.617,10.617
			c5.864,0,10.617-4.754,10.617-10.617C232.802,221.303,217.385,205.885,198.435,205.885z"/>
	</g>
</g>
<g>
	<g>
		<path d="M246.81,420.859l-8.971-14.948c-3.017-5.029-9.54-6.658-14.566-3.64c-5.027,3.017-6.658,9.538-3.639,14.566l8.971,14.95
			c1.991,3.318,5.507,5.156,9.112,5.156c1.859,0,3.743-0.489,5.454-1.516C248.197,432.408,249.828,425.887,246.81,420.859z"/>
	</g>
</g>
<g>
	<g>
		<path d="M288.727,402.272c-5.027-3.016-11.549-1.388-14.566,3.64l-8.971,14.948c-3.018,5.026-1.389,11.548,3.639,14.565
			c1.71,1.027,3.594,1.516,5.454,1.516c3.605,0,7.122-1.838,9.112-5.156l8.971-14.948
			C295.384,411.811,293.754,405.289,288.727,402.272z"/>
	</g>
</g>
</svg>